<?xml version="1.0" encoding="iso-8859-1"?>
<!-- Generator: Adobe Illustrator 19.0.0, SVG Export Plug-In . SVG Version: 6.00 Build 0)  -->
<svg version="1.1" id="Layer_1" xmlns="http://www.w3.org/2000/svg" xmlns:xlink="http://www.w3.org/1999/xlink" x="0px" y="0px"
	 viewBox="0 0 512 512" style="enable-background:new 0 0 512 512;" xml:space="preserve">
<path style="fill:#FBC566;" d="M190.504,190.504C132.048,248.958,82.637,309.737,51.373,361.643
	C15.346,421.455,7.7,462.403,28.649,483.351c7.685,7.686,18.218,11.583,31.309,11.583c0.002,0,0,0,0.001,0
	c33.443,0,80.367-26.786,113.839-49.256c46.805-31.419,97.877-74.359,147.698-124.182L190.504,190.504z"/>
<path style="fill:#F9B233;" d="M483.352,28.649c-7.685-7.686-18.219-11.583-31.311-11.583c-33.444,0-80.366,26.786-113.839,49.257
	c-46.806,31.419-97.878,74.359-147.698,124.18l130.993,130.993c58.456-58.454,107.867-119.233,139.131-171.14
	C496.655,90.545,504.3,49.597,483.352,28.649z"/>
<path style="fill:#FA9647;" d="M483.352,28.649c-7.686-7.686-18.219-11.583-31.309-11.583c-33.444,0-80.366,26.786-113.84,49.257
	c-46.805,31.419-97.877,74.359-147.698,124.18l36.204,36.204c46.833-46.833,96.562-88.694,140.027-117.871
	c34.987-23.486,60.51-35.087,75.429-38.998h29.12l17.067-36.189L483.352,28.649z"/>
<path style="fill:#F9B233;" d="M190.504,190.504C132.048,248.959,82.637,309.737,51.373,361.643
	C15.346,421.455,7.7,462.403,28.649,483.352l4.999,4.998l36.18-17.067v-29.118c3.33-12.535,12.67-35.255,35.271-69.795
	c29.365-44.877,72.554-96.609,121.608-145.664L190.504,190.504z"/>
<path style="fill:#FB7A5B;" d="M452.042,0c-30.3,0-71.803,17.548-123.357,52.156c-47.707,32.025-99.663,75.692-150.25,126.28
	l24.137,24.137C321.47,83.674,441.776,11.209,471.284,40.718h24.136V16.581C487.856,9.017,474.19,0,452.042,0z"/>
<path style="fill:#FA9647;" d="M202.572,202.571l-24.137-24.137C119.028,237.841,68.711,299.778,36.753,352.836
	c-16.556,27.485-27.64,51.753-32.947,72.129c-9.85,37.822,1.51,59.188,12.775,70.453h24.136v-24.137
	C11.209,441.776,83.673,321.469,202.572,202.571z"/>
<path style="fill:#FCD999;" d="M256,76.8v358.4c98.97,0,179.2-80.23,179.2-179.2S354.969,76.8,256,76.8z"/>
<path style="fill:#FEECCC;" d="M401.066,256c0-98.97-64.949-179.2-145.067-179.2c-98.97,0-179.2,80.23-179.2,179.2
	S157.03,435.2,256,435.2C336.119,435.2,401.066,354.97,401.066,256z"/>
<path style="fill:#FD5F6E;" d="M495.419,16.581l-24.136,24.136c29.508,29.508-42.957,149.815-161.855,268.712v24.137h24.136
	c59.407-59.407,109.725-121.344,141.682-174.402c16.556-27.485,27.64-51.753,32.947-72.129
	C518.044,49.211,506.683,27.845,495.419,16.581z"/>
<path style="fill:#FB7A5B;" d="M309.429,309.429C190.531,428.327,70.225,500.792,40.716,471.285L16.581,495.42
	C24.145,502.984,37.81,512,59.958,512c30.3,0,71.803-17.547,123.357-52.156c47.706-32.025,99.661-75.692,150.249-126.28
	L309.429,309.429z"/>
<g>
	<path style="fill:#FA9647;" d="M471.283,40.717l-29.112,29.118c-3.33,12.535-12.67,35.255-35.27,69.795
		c-29.366,44.879-72.554,96.61-121.608,145.664v24.136h24.136C428.326,190.531,500.792,70.224,471.283,40.717z"/>
	<path style="fill:#FA9647;" d="M285.293,285.293c-46.833,46.833-96.563,88.694-140.027,117.871
		c-34.987,23.486-60.51,35.087-75.429,38.998l-29.12,29.12c29.508,29.508,149.815-42.957,268.712-161.855L285.293,285.293z"/>
</g>
<g>
	<circle style="fill:#FCD999;" cx="119.466" cy="256" r="8.533"/>
	<circle style="fill:#FCD999;" cx="153.6" cy="221.867" r="8.533"/>
</g>
<g>
</g>
<g>
</g>
<g>
</g>
<g>
</g>
<g>
</g>
<g>
</g>
<g>
</g>
<g>
</g>
<g>
</g>
<g>
</g>
<g>
</g>
<g>
</g>
<g>
</g>
<g>
</g>
<g>
</g>
</svg>
