<?xml version="1.0" encoding="UTF-8" standalone="no"?>
<!-- Generator: Adobe Illustrator 16.0.0, SVG Export Plug-In . SVG Version: 6.00 Build 0)  -->

<svg
   xmlns:dc="http://purl.org/dc/elements/1.1/"
   xmlns:cc="http://creativecommons.org/ns#"
   xmlns:rdf="http://www.w3.org/1999/02/22-rdf-syntax-ns#"
   xmlns:svg="http://www.w3.org/2000/svg"
   xmlns="http://www.w3.org/2000/svg"
   xmlns:sodipodi="http://sodipodi.sourceforge.net/DTD/sodipodi-0.dtd"
   xmlns:inkscape="http://www.inkscape.org/namespaces/inkscape"
   version="1.1"
   id="Capa_1"
   x="0px"
   y="0px"
   width="486.866px"
   height="486.866px"
   viewBox="0 0 486.866 486.866"
   style="enable-background:new 0 0 486.866 486.866;"
   xml:space="preserve"
   sodipodi:docname="locked-padlock.svg"
   inkscape:version="0.92.3 (2405546, 2018-03-11)"><metadata
   id="metadata983"><rdf:RDF><cc:Work
       rdf:about=""><dc:format>image/svg+xml</dc:format><dc:type
         rdf:resource="http://purl.org/dc/dcmitype/StillImage" /><dc:title></dc:title></cc:Work></rdf:RDF></metadata><defs
   id="defs981" /><sodipodi:namedview
   pagecolor="#ffffff"
   bordercolor="#666666"
   borderopacity="1"
   objecttolerance="10"
   gridtolerance="10"
   guidetolerance="10"
   inkscape:pageopacity="0"
   inkscape:pageshadow="2"
   inkscape:window-width="2256"
   inkscape:window-height="1410"
   id="namedview979"
   showgrid="false"
   inkscape:zoom="1.0906492"
   inkscape:cx="177.31515"
   inkscape:cy="313.21086"
   inkscape:window-x="-11"
   inkscape:window-y="-11"
   inkscape:window-maximized="1"
   inkscape:current-layer="Capa_1" />
<g
   id="g946"
   style="fill:#31393c;fill-opacity:1">
	<path
   d="m 393.904,214.852 h -8.891 v -72.198 c 0,-76.962 -61.075,-141.253 -137.411,-142.625 -2.084,-0.038 -6.254,-0.038 -8.338,0 C 162.927,1.4 101.853,65.691 101.853,142.653 v 81.603 c 0,16.182 58.599,16.182 58.599,0 v -81.603 c 0,-45.845 37.257,-83.752 82.98,-83.752 45.723,0 82.981,37.907 82.981,83.752 v 72.198 H 92.963 c -13.702,0 -24.878,14.139 -24.878,31.602 v 208.701 c 0,17.44 11.176,31.712 24.878,31.712 h 300.941 c 13.703,0 24.878,-14.271 24.878,-31.712 V 246.452 c 0.001,-17.463 -11.175,-31.6 -24.878,-31.6 z M 271.627,350.591 v 63.062 c 0,7.222 -6.046,13.332 -13.273,13.332 h -29.841 c -7.228,0 -13.273,-6.11 -13.273,-13.332 v -63.062 c -7.009,-6.9 -11.09,-16.44 -11.09,-26.993 0,-19.999 15.459,-37.185 35.115,-37.977 2.083,-0.085 6.255,-0.085 8.337,0 19.656,0.792 35.115,17.978 35.115,37.977 0,10.551 -4.08,20.092 -11.09,26.993 z"
   id="path944"
   inkscape:connector-curvature="0"
   sodipodi:nodetypes="scsccsssssscsssssscscsssscsccsc"
   style="fill:#31393c;fill-opacity:1" />
</g>
<g
   id="g948">
</g>
<g
   id="g950">
</g>
<g
   id="g952">
</g>
<g
   id="g954">
</g>
<g
   id="g956">
</g>
<g
   id="g958">
</g>
<g
   id="g960">
</g>
<g
   id="g962">
</g>
<g
   id="g964">
</g>
<g
   id="g966">
</g>
<g
   id="g968">
</g>
<g
   id="g970">
</g>
<g
   id="g972">
</g>
<g
   id="g974">
</g>
<g
   id="g976">
</g>
</svg>