<?xml version="1.0" encoding="UTF-8" standalone="no"?>
<!-- Generator: Adobe Illustrator 19.0.0, SVG Export Plug-In . SVG Version: 6.00 Build 0)  -->

<svg
   xmlns:dc="http://purl.org/dc/elements/1.1/"
   xmlns:cc="http://creativecommons.org/ns#"
   xmlns:rdf="http://www.w3.org/1999/02/22-rdf-syntax-ns#"
   xmlns:svg="http://www.w3.org/2000/svg"
   xmlns="http://www.w3.org/2000/svg"
   xmlns:sodipodi="http://sodipodi.sourceforge.net/DTD/sodipodi-0.dtd"
   xmlns:inkscape="http://www.inkscape.org/namespaces/inkscape"
   version="1.1"
   id="Capa_1"
   x="0px"
   y="0px"
   viewBox="0 0 465.43447 559.57951"
   xml:space="preserve"
   sodipodi:docname="meteorite.svg"
   width="465.43448"
   height="559.57953"
   inkscape:version="0.92.3 (2405546, 2018-03-11)"><metadata
   id="metadata22293"><rdf:RDF><cc:Work
       rdf:about=""><dc:format>image/svg+xml</dc:format><dc:type
         rdf:resource="http://purl.org/dc/dcmitype/StillImage" /><dc:title></dc:title></cc:Work></rdf:RDF></metadata><defs
   id="defs22291">
	
		
	
		
	
		
	
		
	
		
	
		
	
		
	
		
	
		
</defs><sodipodi:namedview
   pagecolor="#ffffff"
   bordercolor="#666666"
   borderopacity="1"
   objecttolerance="10"
   gridtolerance="10"
   guidetolerance="10"
   inkscape:pageopacity="0"
   inkscape:pageshadow="2"
   inkscape:window-width="2256"
   inkscape:window-height="1410"
   id="namedview22289"
   showgrid="false"
   fit-margin-top="0"
   fit-margin-left="0"
   fit-margin-right="0"
   fit-margin-bottom="0"
   inkscape:zoom="1.4667256"
   inkscape:cx="171.38395"
   inkscape:cy="262.00407"
   inkscape:window-x="-11"
   inkscape:window-y="-11"
   inkscape:window-maximized="1"
   inkscape:current-layer="Capa_1" />






<g
   id="g22852"
   transform="matrix(1.3012289,0,0,1.3012289,-56.469431,0)"><path
     id="path22228"
     d="m 236.728,401.758 c 36.498,36.498 94.946,37.67 132.854,3.513 41.29,-37.204 41.842,-101.927 2.542,-141.228 L 136.829,28.748 167.015,99.181 67.833,0 151.203,155.241 43.397,64.684 c -10e-4,0 136.554,280.296 193.331,337.074 z"
     style="fill:#e0634b"
     inkscape:connector-curvature="0" /><path
     id="path22230"
     d="M 305.006,417.825 C 282.475,417.824 261.294,409.051 245.365,393.12 205.476,353.231 161.135,243.234 118.832,159.672 l 112.613,126.105 -89.891,-167.209 90.023,77.589 -34.42,-81.053 166.332,157.576 c 16.729,16.729 25.971,39.884 25.356,63.529 -0.605,23.288 -10.349,44.592 -27.436,59.988 -15.478,13.947 -35.508,21.628 -56.396,21.628 -0.005,0 -0.005,0 -0.007,0 z"
     style="fill:#f77759"
     inkscape:connector-curvature="0" /><path
     id="path22232"
     d="m 366.879,370.655 c -2.976,4.941 -6.584,9.593 -10.848,13.857 -28.18,28.18 -73.869,28.18 -102.049,0 -28.191,-28.18 -28.191,-73.88 0,-102.06 4.264,-4.264 8.927,-7.883 13.868,-10.848 27.736,-16.688 64.265,-13.068 88.181,10.848 23.917,23.915 27.537,60.467 10.848,88.203 z"
     style="fill:#efaa56"
     inkscape:connector-curvature="0" /><path
     id="path22234"
     d="m 366.879,370.655 c -27.736,16.688 -64.276,13.068 -88.192,-10.848 -23.927,-23.916 -27.547,-60.468 -10.837,-88.203 27.736,-16.688 64.265,-13.068 88.181,10.848 23.917,23.915 27.537,60.467 10.848,88.203 z"
     style="fill:#f9b55a"
     inkscape:connector-curvature="0" /><ellipse
     id="ellipse22236"
     ry="12.073"
     rx="20.400999"
     cy="311.23801"
     cx="339.189"
     style="fill:#f9c280"
     transform="matrix(-0.7071,-0.7071,0.7071,-0.7071,358.9538,771.1605)" /></g>

<g
   id="g22258"
   transform="translate(-37.249316,29.998794)">
</g>
<g
   id="g22260"
   transform="translate(-37.249316,29.998794)">
</g>
<g
   id="g22262"
   transform="translate(-37.249316,29.998794)">
</g>
<g
   id="g22264"
   transform="translate(-37.249316,29.998794)">
</g>
<g
   id="g22266"
   transform="translate(-37.249316,29.998794)">
</g>
<g
   id="g22268"
   transform="translate(-37.249316,29.998794)">
</g>
<g
   id="g22270"
   transform="translate(-37.249316,29.998794)">
</g>
<g
   id="g22272"
   transform="translate(-37.249316,29.998794)">
</g>
<g
   id="g22274"
   transform="translate(-37.249316,29.998794)">
</g>
<g
   id="g22276"
   transform="translate(-37.249316,29.998794)">
</g>
<g
   id="g22278"
   transform="translate(-37.249316,29.998794)">
</g>
<g
   id="g22280"
   transform="translate(-37.249316,29.998794)">
</g>
<g
   id="g22282"
   transform="translate(-37.249316,29.998794)">
</g>
<g
   id="g22284"
   transform="translate(-37.249316,29.998794)">
</g>
<g
   id="g22286"
   transform="translate(-37.249316,29.998794)">
</g>
</svg>